<svg xmlns="http://www.w3.org/2000/svg" xmlns:xlink="http://www.w3.org/1999/xlink">

    <symbol id="logo" viewBox="0 0 156 63" fill="none" xmlns="http://www.w3.org/2000/svg">
        <path d="M10.3513 57.0912C10.3513 55.9798 9.9699 55.0428 9.21807 54.2691C8.46624 53.4955 7.55097 53.1142 6.48316 53.1142C5.51341 53.1142 4.67441 53.4192 3.96617 54.0403C3.26882 54.6505 2.83298 55.3914 2.66953 56.274H1.63441V53.2776H0V60.9048H1.63441V57.7995H2.66953C2.83298 58.7256 3.26882 59.5101 3.96617 60.1312C4.66351 60.7523 5.50251 61.0683 6.48316 61.0683C7.55097 61.0683 8.46624 60.6869 9.21807 59.9133C9.9699 59.1506 10.3513 58.2026 10.3513 57.0912ZM8.71685 57.0912C8.71685 57.8104 8.49893 58.4096 8.06309 58.8782C7.61635 59.3576 7.09334 59.5973 6.48316 59.5973C5.87298 59.5973 5.34997 59.3576 4.91412 58.8782C4.46738 58.4096 4.24946 57.8104 4.24946 57.0912C4.24946 56.3721 4.46738 55.7728 4.91412 55.2934C5.34997 54.8248 5.87298 54.5851 6.48316 54.5851C7.09334 54.5851 7.61635 54.8248 8.06309 55.2934C8.49893 55.7728 8.71685 56.3721 8.71685 57.0912Z"
              fill="currentColor"/>
        <path d="M12.9603 53.2781V60.9054H14.5947V58.3993H16.1746C16.9591 58.3993 17.6129 58.1487 18.125 57.6583C18.6371 57.168 18.8986 56.5578 18.8986 55.8387C18.8986 55.1087 18.6371 54.5094 18.125 54.0082C17.602 53.5178 16.9591 53.2781 16.1746 53.2781H12.9603ZM16.1201 54.7491C16.447 54.7491 16.7194 54.858 16.9373 55.0651C17.1553 55.2721 17.2642 55.5336 17.2642 55.8387C17.2642 56.1438 17.1553 56.4053 16.9373 56.6123C16.7194 56.8193 16.447 56.9283 16.1201 56.9283H14.5947V54.7491H16.1201Z"
              fill="currentColor"/>
        <path d="M28.2618 60.9054V53.2781H26.8453L23.0862 58.1269V53.2781H21.4518V60.9054H22.8683L26.6274 56.0566V60.9054H28.2618Z"
              fill="currentColor"/>
        <path d="M30.3245 59.4344V62.4853H31.959V60.9054H36.5353V62.4853H38.1697V59.4344H37.2435V53.2781H31.959V55.6208C31.959 56.1329 31.9154 56.6123 31.8282 57.0591C31.741 57.5167 31.643 57.8763 31.5449 58.1487C31.4359 58.4102 31.3161 58.6499 31.1744 58.8787C31.0328 59.0966 30.9456 59.2383 30.8911 59.3036C30.8258 59.3581 30.7931 59.4126 30.7604 59.4344H30.3245ZM33.5934 55.6208V54.7491H35.6091V59.4344H32.3948L32.5256 59.3036C32.6018 59.2165 32.6999 59.0748 32.8197 58.8678C32.9396 58.6608 33.0486 58.4211 33.1684 58.1487C33.2883 57.8763 33.3863 57.5058 33.4626 57.0591C33.5498 56.6123 33.5934 56.1329 33.5934 55.6208Z"
              fill="currentColor"/>
        <path d="M47.3114 60.9054V53.2781H45.8949L42.1358 58.1269V53.2781H40.5014V60.9054H41.9178L45.677 56.0566V60.9054H47.3114Z"
              fill="currentColor"/>
        <path d="M51.8817 53.2781H50.2473V55.6208C50.2473 56.536 50.487 57.2443 50.9665 57.7455C51.4568 58.2576 52.1214 58.5082 52.9713 58.5082C53.7014 58.5082 54.3007 58.3666 54.7692 58.0724V60.9054H56.4036V53.2781H54.7692V56.4925L54.5839 56.6341C54.4641 56.7213 54.2789 56.8084 54.0282 56.9065C53.7776 56.9937 53.5161 57.0373 53.2437 57.0373C52.8079 57.0373 52.4701 56.9174 52.2304 56.6777C52.0016 56.4271 51.8817 56.0784 51.8817 55.6208V53.2781Z"
              fill="currentColor"/>
        <path d="M65.9856 53.2781H64.3512V56.329H61.0824V53.2781H59.448V60.9054H61.0824V57.8H64.3512V60.9054H65.9856V53.2781Z"
              fill="currentColor"/>
        <path d="M72.9549 57.691H71.1026L72.0288 55.1849L72.9549 57.691ZM73.4997 59.1075L74.1535 60.9054H75.8969L72.9004 53.2781H71.1571L68.1606 60.9054H69.904L70.5578 59.1075H73.4997Z"
              fill="currentColor"/>
        <path d="M83.0222 53.2781H81.3878V60.9054H83.0222V58.7262L84.0029 57.6365L86.2366 60.9054H88.1434L85.0925 56.438L87.9255 53.2781H86.0187L83.0222 56.6014V53.2781Z"
              fill="currentColor"/>
        <path d="M91.4614 57.0912C91.4614 56.3939 91.7012 55.7946 92.1806 55.3152C92.6491 54.8248 93.2266 54.5851 93.9131 54.5851C94.5995 54.5851 95.177 54.8248 95.6455 55.3152C96.125 55.7946 96.3647 56.3939 96.3647 57.0912C96.3647 57.7995 96.125 58.3879 95.6455 58.8673C95.177 59.3576 94.5995 59.5973 93.9131 59.5973C93.2266 59.5973 92.6491 59.3576 92.1806 58.8673C91.7012 58.3879 91.4614 57.7995 91.4614 57.0912ZM89.7726 57.0912C89.7726 58.1808 90.1757 59.1288 90.9711 59.9024C91.7665 60.676 92.7472 61.0683 93.9131 61.0683C95.0789 61.0683 96.0596 60.676 96.855 59.9024C97.6504 59.1288 98.0536 58.1808 98.0536 57.0912C98.0536 55.9907 97.6504 55.0537 96.855 54.28C96.0596 53.5064 95.0789 53.1142 93.9131 53.1142C92.7472 53.1142 91.7665 53.5064 90.9711 54.28C90.1757 55.0537 89.7726 55.9907 89.7726 57.0912Z"
              fill="currentColor"/>
        <path d="M104.748 56.6014L102.133 53.2781H100.662V60.9054H102.297V55.8387L104.748 58.9441L107.2 55.8169V60.9054H108.834V53.2781H107.385L104.748 56.6014Z"
              fill="currentColor"/>
        <path d="M118.359 53.2781H111.876V60.9054H113.511V54.7491H116.725V60.9054H118.359V53.2781Z"
              fill="currentColor"/>
        <path d="M125.33 57.691H123.477L124.404 55.1849L125.33 57.691ZM125.875 59.1075L126.528 60.9054H128.272L125.275 53.2781H123.532L120.536 60.9054H122.279L122.933 59.1075H125.875Z"
              fill="currentColor"/>
        <path d="M136.983 53.2781H135.349V56.329H132.08V53.2781H130.445V60.9054H132.08V57.8H135.349V60.9054H136.983V53.2781Z"
              fill="currentColor"/>
        <path d="M141.662 53.2781H140.027V60.9054H141.662V53.2781Z" fill="currentColor"/>
        <path d="M150.373 53.2781H146.995C146.232 53.2781 145.611 53.5178 145.121 53.9973C144.63 54.4767 144.38 55.076 144.38 55.7842C144.38 56.0893 144.434 56.3726 144.521 56.645C144.619 56.9174 144.728 57.1244 144.859 57.277C144.979 57.4295 145.11 57.5712 145.273 57.7019C145.426 57.8327 145.535 57.9198 145.6 57.9525C145.655 57.9743 145.709 58.007 145.742 58.0179L144.107 60.9054H145.851L147.322 58.2358H148.738V60.9054H150.373V53.2781ZM146.014 55.7842C146.014 55.4791 146.112 55.2394 146.308 55.0433C146.504 54.8472 146.755 54.7491 147.049 54.7491H148.738V56.7649H147.049C146.755 56.7649 146.504 56.6668 146.308 56.4816C146.112 56.2963 146.014 56.0566 146.014 55.7842Z"
              fill="currentColor"/>
        <path d="M4.98113 7.62939e-05H0V35.975H4.98113V22.6286C4.98113 20.3708 5.54273 18.5896 6.66593 17.3353C7.78912 16.0809 9.32741 15.4286 11.232 15.4286C12.8679 15.4286 14.2353 16.0307 15.3341 17.1847C16.4329 18.3638 16.9944 19.844 16.9944 21.6252V36.0001H22V21.6252C22 18.3137 21.0966 15.7046 19.2897 13.7478C17.4828 11.791 15.1143 10.8126 12.2331 10.8126C11.4029 10.8126 10.5727 10.913 9.76693 11.1388C8.93674 11.3645 8.27747 11.6154 7.74029 11.8914C7.20311 12.1673 6.69034 12.4684 6.22642 12.8196C5.76249 13.1708 5.44506 13.4217 5.29856 13.5722C5.15205 13.7227 5.02997 13.8231 4.98113 13.8983V7.62939e-05Z"
              fill="#F0145A"/>
        <path d="M33.135 0H28V35.945H33.135V0Z" fill="currentColor"/>
        <path d="M63.4222 25.4178L63.6789 22.8503C63.6789 19.4098 62.5492 16.5342 60.2385 14.2235C57.9277 11.9127 55.0521 10.783 51.6117 10.783C48.1712 10.783 45.1929 12.0154 42.7281 14.4802C40.2633 16.945 39.0309 19.872 39.0309 23.3638C39.0309 26.9583 40.3147 30.0393 42.8308 32.6068C45.347 35.1743 48.3766 36.4581 51.8684 36.4581C53.2035 36.4581 54.4359 36.2527 55.6683 35.8932C56.9007 35.4824 57.9277 35.0716 58.6466 34.6608C59.4169 34.1987 60.1871 33.6852 60.8547 33.1203C61.5222 32.5555 61.9844 32.1447 62.1898 31.8879C62.3952 31.6312 62.5492 31.4771 62.6519 31.3231L59.3142 27.9853L58.5439 28.961C58.0304 29.5772 57.1575 30.1934 55.9251 30.8609C54.6413 31.5285 53.3062 31.8366 51.8684 31.8366C49.8658 31.8366 48.1712 31.2204 46.7334 29.9366C45.2956 28.6529 44.4227 27.1637 44.1659 25.4178H63.4222ZM51.6117 15.1478C53.5116 15.1478 55.0521 15.7126 56.3359 16.791C57.5683 17.9207 58.3385 19.3071 58.6466 21.053H44.3713C44.8335 19.3071 45.6551 17.9207 46.9388 16.791C48.1712 15.7126 49.7631 15.1478 51.6117 15.1478Z"
              fill="currentColor"/>
        <path d="M87.3712 34.4554C87.3712 36.7148 86.7037 38.5634 85.3172 40.0012C83.9821 41.3877 82.2876 42.1066 80.1822 42.1066C79.2579 42.1066 78.3336 41.9525 77.4607 41.6958C76.5877 41.439 75.9202 41.1309 75.3553 40.7715C74.7905 40.412 74.277 40.0526 73.7635 39.5904C73.3013 39.1283 72.9932 38.8202 72.8392 38.6661C72.6851 38.5121 72.5824 38.358 72.4797 38.2553L69.142 41.5931L69.5528 42.1066C69.8095 42.466 70.2717 42.9282 70.8879 43.4417C71.5041 43.9038 72.223 44.4173 73.0446 44.9308C73.8662 45.393 74.8932 45.8038 76.1769 46.1632C77.4607 46.5227 78.7958 46.7281 80.1822 46.7281C83.674 46.7281 86.5496 45.547 88.9631 43.1849C91.3252 40.7715 92.5062 37.8959 92.5062 34.404V11.2965H87.3712V13.864L86.4983 13.0938C85.9334 12.5803 85.0605 12.0668 83.8281 11.5533C82.5957 11.0398 81.2606 10.783 79.9255 10.783C76.7931 10.783 74.1229 11.9641 71.8122 14.3775C69.5014 16.791 68.3717 19.6666 68.3717 23.107C68.3717 26.5475 69.5014 29.4231 71.8122 31.8365C74.1229 34.25 76.7931 35.431 79.9255 35.431C80.7984 35.431 81.62 35.3284 82.493 35.1229C83.3146 34.8662 83.9821 34.6094 84.547 34.3527C85.1118 34.0959 85.6253 33.7878 86.0875 33.4284C86.5496 33.0689 86.9091 32.8122 87.0118 32.7095L87.3712 32.35V34.4554ZM73.5067 23.107C73.5067 20.9503 74.1743 19.1531 75.5607 17.6639C76.9472 16.1748 78.5904 15.4045 80.439 15.4045C82.2876 15.4045 83.9308 16.1748 85.3172 17.6639C86.6523 19.1531 87.3712 20.9503 87.3712 23.107C87.3712 25.2637 86.6523 27.061 85.3172 28.5501C83.9308 30.0393 82.2876 30.8095 80.439 30.8095C78.5904 30.8095 76.9472 30.0393 75.5607 28.5501C74.1743 27.061 73.5067 25.2637 73.5067 23.107Z"
              fill="currentColor"/>
        <path d="M119.309 35.9446V20.026C119.309 17.4072 118.333 15.1991 116.433 13.4532C114.533 11.656 112.068 10.783 109.039 10.783C107.858 10.783 106.677 10.9371 105.547 11.2452C104.417 11.6046 103.493 11.9641 102.825 12.3749C102.158 12.7857 101.49 13.2478 100.874 13.8127C100.258 14.3262 99.8985 14.6856 99.6931 14.891C99.539 15.0964 99.385 15.2505 99.2823 15.4045L102.62 18.7423L103.288 17.8693C103.698 17.3045 104.417 16.791 105.496 16.2261C106.574 15.6613 107.755 15.4045 109.039 15.4045C110.528 15.4045 111.76 15.8667 112.736 16.7396C113.712 17.6126 114.174 18.7423 114.174 20.026L105.188 21.5665C102.979 21.926 101.182 22.7989 99.9498 24.1854C98.6661 25.5719 97.9985 27.2664 97.9985 29.2691C97.9985 31.169 98.8201 32.8122 100.463 34.25C102.158 35.7392 104.212 36.4581 106.728 36.4581C107.601 36.4581 108.423 36.3554 109.244 36.0986C110.117 35.8932 110.785 35.6365 111.35 35.3797C111.914 35.123 112.428 34.8149 112.89 34.4554C113.352 34.096 113.66 33.8392 113.866 33.7365C114.02 33.5825 114.122 33.4284 114.174 33.3771V35.9446H119.309ZM107.498 31.8366C106.163 31.8366 105.085 31.5285 104.315 30.9123C103.493 30.2961 103.134 29.5772 103.134 28.7556C103.134 27.8826 103.39 27.1124 103.955 26.5475C104.52 25.9827 105.29 25.5719 106.215 25.4178L114.174 24.134V24.6475C114.174 26.9583 113.609 28.7042 112.428 29.988C111.247 31.2204 109.604 31.8366 107.498 31.8366Z"
              fill="currentColor"/>
        <path d="M130.64 -3.8147e-06H125.505V35.945H130.64V-3.8147e-06Z" fill="currentColor"/>
        <path d="M153.989 14.1208L153.681 13.7613C153.475 13.5559 153.167 13.2992 152.705 12.9397C152.243 12.5803 151.729 12.2722 151.165 11.9127C150.6 11.6046 149.829 11.3479 148.905 11.0911C147.981 10.8857 147.005 10.783 146.03 10.783C143.513 10.783 141.459 11.5019 139.816 12.9397C138.122 14.4289 137.3 16.0721 137.3 17.972C137.3 19.3585 137.608 20.4882 138.224 21.5152C138.841 22.4908 139.611 23.2097 140.586 23.6205C141.511 24.0827 142.538 24.5448 143.616 24.9043C144.694 25.2638 145.67 25.5719 146.646 25.8286C147.57 26.1367 148.34 26.4962 148.957 26.9583C149.573 27.4205 149.881 28.0367 149.881 28.7556C149.881 29.6799 149.521 30.4501 148.854 31.015C148.186 31.5285 147.159 31.8366 145.773 31.8366C144.643 31.8366 143.513 31.5285 142.435 31.015C141.357 30.4501 140.689 29.988 140.33 29.6285C140.022 29.2691 139.765 28.961 139.611 28.7556L136.273 32.0933L136.633 32.5555C136.889 32.8636 137.249 33.223 137.762 33.6338C138.327 34.096 138.943 34.5068 139.611 34.9176C140.33 35.3284 141.254 35.6878 142.332 35.9959C143.411 36.304 144.592 36.4581 145.773 36.4581C148.494 36.4581 150.754 35.6878 152.448 34.1987C154.143 32.7095 155.016 30.8609 155.016 28.7556C155.016 27.3691 154.708 26.1881 154.092 25.2638C153.475 24.2881 152.705 23.5692 151.729 23.107C150.805 22.5935 149.778 22.1827 148.7 21.8233C147.621 21.4638 146.646 21.1044 145.67 20.899C144.746 20.6422 143.976 20.2314 143.359 19.7693C142.743 19.3071 142.435 18.6909 142.435 17.972C142.435 17.3045 142.743 16.6883 143.411 16.1748C144.027 15.6613 144.9 15.4045 146.03 15.4045C146.851 15.4045 147.673 15.6099 148.443 15.9694C149.265 16.3288 149.829 16.6369 150.086 16.8937C150.343 17.1504 150.548 17.3558 150.651 17.4585L153.989 14.1208Z"
              fill="currentColor"/>
    </symbol>
    <symbol viewBox="0 0 24 24" id="facebook">
        <path d="M24 12.0733C24 5.40541 18.6274 0 12 0C5.37258 0 0 5.40541 0 12.0733C0 18.0995 4.38823 23.0943 10.125 24V15.5633H7.07813V12.0733H10.125V9.41343C10.125 6.38755 11.9165 4.71615 14.6576 4.71615C15.9705 4.71615 17.3438 4.95195 17.3438 4.95195V7.92313H15.8306C14.3399 7.92313 13.875 8.85379 13.875 9.80857V12.0733H17.2031L16.6711 15.5633H13.875V24C19.6118 23.0943 24 18.0995 24 12.0733Z"
              fill="currentColor"/>
    </symbol>
    <symbol viewBox="0 0 42 42" id="arrow-down">
        <circle opacity="0.5" cx="21" cy="21" r="20.5" stroke="white" fill="currentColor"/>
        <path d="M12 18L21 27L30 18" stroke="white" stroke-width="2" fill="none"/>
    </symbol>
    <symbol id="shopping-purse" viewBox="0 0 64 64">
        <path d="M23.7339 28.125C24.8379 28.125 25.7339 27.229 25.7339 26.125V18.325C25.7339 14.838 28.5709 12 32.0579 12C35.5449 12 38.3829 14.838 38.3829 18.325V26.125C38.3829 27.229 39.2779 28.125 40.3829 28.125C41.4869 28.125 42.3829 27.229 42.3829 26.125V18.325C42.3839 12.632 37.7519 8 32.0579 8C26.3659 8 21.7339 12.632 21.7339 18.325V26.125C21.7339 27.229 22.6299 28.125 23.7339 28.125Z" fill="url(#paint0_linear_45492_39)"/>
        <path d="M55 23.631H44.384V26.125C44.384 28.331 42.59 30.125 40.384 30.125C38.178 30.125 36.384 28.331 36.384 26.125V23.631H27.735V26.125C27.735 28.331 25.941 30.125 23.735 30.125C21.529 30.125 19.735 28.331 19.735 26.125V23.631H8.99997C8.44797 23.631 8.10697 24.066 8.23797 24.602L15.236 53.099C15.658 54.701 17.344 56 19 56H45C46.658 56 48.342 54.701 48.766 53.099L55.762 24.602C55.893 24.065 55.553 23.631 55 23.631Z" fill="url(#paint1_linear_45492_39)"/>
        <path d="M28.6001 34.4C28.6001 33.6265 29.2266 33 30.0001 33C30.7736 33 31.4001 33.6265 31.4001 34.4V41.35L31.4001 40C31.4001 39.2265 32.0266 38.6 32.8001 38.6C33.5736 38.6 34.2001 39.2265 34.2001 40V41.6764C34.2127 40.9141 34.8346 39.3 35.6 39.3C36.3731 39.3 36.9999 39.9268 37 40.7C37 40.7 37.0411 41.7411 37.1332 41.8033C37.3572 41.3285 37.8402 40 38.4 40C39.1732 40 39.8 40.6268 39.8 41.4V48.4C39.8 49.9463 38.5463 51.2 37 51.2H32.3198C30.8344 51.2 29.4099 50.6099 28.3599 49.5599L26.15 47.35L23 45.9402C23.0051 44.6033 24.0526 44.2 25.1 44.2C26.0023 44.2 26.8136 44.3407 28.6 45.25L28.6001 34.4Z" fill="white"/>
        <defs>
            <linearGradient id="paint0_linear_45492_39" x1="32.0584" y1="8" x2="32.0584" y2="28.125" gradientUnits="userSpaceOnUse">
                <stop stop-color="#EF8080"/>
                <stop offset="1" stop-color="#F0145A"/>
            </linearGradient>
            <linearGradient id="paint1_linear_45492_39" x1="32" y1="23.631" x2="32" y2="56" gradientUnits="userSpaceOnUse">
                <stop stop-color="#EF8080"/>
                <stop offset="1" stop-color="#F0145A"/>
            </linearGradient>
        </defs>
    </symbol>
    <symbol id="bag" viewBox="0 0 64 64">

    </symbol>
    <symbol id="crowdfunding" viewBox="0 0 64 64">
        <g clip-path="url(#clip0_45246_1155)">
            <path d="M60.5264 37.7273C59.8389 37.4426 59.1151 37.2982 58.3752 37.2982C56.7435 37.2982 55.2362 37.9946 54.1896 39.1615L52.9696 38.6562L49.4895 37.2147C49.9834 35.5616 50.2499 33.8113 50.2499 31.9998C50.2499 30.1883 49.9832 28.4381 49.4895 26.7849L52.9696 25.3435L54.1896 24.8381C55.2362 26.0051 56.7435 26.7014 58.3752 26.7014C59.1151 26.7014 59.8389 26.5571 60.5264 26.2722C63.3917 25.0852 64.7575 21.7883 63.5705 18.9227C62.6965 16.8128 60.656 15.4493 58.3722 15.4493C57.6324 15.4493 56.9086 15.5937 56.2211 15.8786C53.9629 16.814 52.6374 19.0598 52.7574 21.3722L51.5303 21.8805L48.0513 23.3215C46.3611 20.208 43.7916 17.6383 40.6781 15.9483L42.1191 12.4694L42.6269 11.2436C42.7253 11.2487 42.8239 11.2517 42.9229 11.2517C45.2068 11.2517 47.2471 9.88836 48.1213 7.77836C49.3081 4.91287 47.9425 1.61587 45.077 0.428874C44.3894 0.144375 43.6658 0 42.9259 0C40.642 0 38.6017 1.36337 37.7275 3.47337C36.7922 5.73161 37.4429 8.25698 39.1629 9.80723L38.6564 11.0301L37.2149 14.5102C35.5618 14.0165 33.8115 13.7498 32 13.7498C30.1885 13.7498 28.4383 14.0165 26.7852 14.5102L25.3437 11.0301L24.8372 9.80723C26.5572 8.25698 27.2079 5.73161 26.2725 3.47324C25.3984 1.36337 23.3578 0 21.0741 0C20.3342 0 19.6104 0.144375 18.9229 0.429249C16.0576 1.61625 14.6918 4.91312 15.8788 7.77874C16.7528 9.88861 18.7933 11.2521 21.0771 11.2521C21.1761 11.2521 21.2747 11.2491 21.3731 11.244L21.8808 12.4697L23.3218 15.9487C20.2083 17.6388 17.6387 20.2083 15.9487 23.3218L12.4697 21.8808L11.2426 21.3726C11.3626 19.0602 10.0371 16.8143 7.77883 15.8788C7.09133 15.5941 6.36758 15.4497 5.62771 15.4497C3.34384 15.4497 1.30347 16.8131 0.429344 18.9231C-0.757529 21.7886 0.608094 25.0856 3.47359 26.2726C4.16109 26.5573 4.88484 26.7017 5.62471 26.7017C7.25646 26.7017 8.7637 26.0053 9.81033 24.8383L11.0303 25.3437L14.5104 26.7852C14.0166 28.4383 13.7501 30.1886 13.7501 32.0001C13.7501 33.8116 14.0167 35.5618 14.5104 37.2149L11.0302 38.6562L9.8102 39.1615C8.76358 37.9946 7.25633 37.2982 5.62458 37.2982C4.88471 37.2982 4.16096 37.4426 3.47346 37.7274C0.608094 38.9144 -0.757654 42.2113 0.429344 45.0769C1.30334 47.1868 3.34384 48.5503 5.62758 48.5503C6.36746 48.5503 7.09121 48.4059 7.77871 48.121C10.037 47.1857 11.3624 44.9398 11.2424 42.6274L12.4696 42.1192L15.9486 40.6782C17.6387 43.7917 20.2082 46.3613 23.3217 48.0513L21.8807 51.5303L21.3729 52.756C21.2746 52.7509 21.1759 52.7479 21.0769 52.7479C18.7931 52.7479 16.7527 54.1113 15.8786 56.2213C14.6917 59.0868 16.0573 62.3838 18.9228 63.5708C19.6103 63.8555 20.3341 63.9999 21.0739 63.9999C23.3578 63.9999 25.3982 62.6365 26.2723 60.5265C27.2077 58.2683 26.5569 55.7429 24.8369 54.1926L25.3434 52.9698L26.7849 49.4897C28.438 49.9834 30.1883 50.25 31.9998 50.25C33.8113 50.25 35.5615 49.9834 37.2146 49.4897L38.6561 52.9698L39.1626 54.1926C37.4426 55.7429 36.7919 58.2683 37.7273 60.5266C38.6013 62.6365 40.6418 64 42.9255 64C43.6654 64 44.3891 63.8556 45.0766 63.5708C47.942 62.3838 49.3078 59.0869 48.1208 56.2213C47.2468 54.1114 45.2063 52.7479 42.9225 52.7479C42.8235 52.7479 42.7249 52.7509 42.6265 52.756L42.1188 51.5303L40.6778 48.0513C43.7913 46.3612 46.3609 43.7917 48.0509 40.6782L51.5299 42.1192L52.757 42.6274C52.637 44.9398 53.9625 47.1857 56.2207 48.1212C56.9082 48.4059 57.632 48.5503 58.3719 48.5503C60.6557 48.5503 62.6961 47.1869 63.5702 45.0769C64.7575 42.2113 63.392 38.9143 60.5264 37.7273ZM32 46.4998C24.0048 46.4998 17.5001 39.995 17.5001 31.9998C17.5001 24.0046 24.0048 17.4998 32 17.4998C39.9953 17.4998 46.5 24.0046 46.5 31.9998C46.5 39.995 39.9951 46.4998 32 46.4998Z" fill="black"/>
            <path d="M60.5264 37.7273C59.8389 37.4426 59.1151 37.2982 58.3752 37.2982C56.7435 37.2982 55.2362 37.9946 54.1896 39.1615L52.9696 38.6562L49.4895 37.2147C49.9834 35.5616 50.2499 33.8113 50.2499 31.9998C50.2499 30.1883 49.9832 28.4381 49.4895 26.7849L52.9696 25.3435L54.1896 24.8381C55.2362 26.0051 56.7435 26.7014 58.3752 26.7014C59.1151 26.7014 59.8389 26.5571 60.5264 26.2722C63.3917 25.0852 64.7575 21.7883 63.5705 18.9227C62.6965 16.8128 60.656 15.4493 58.3722 15.4493C57.6324 15.4493 56.9086 15.5937 56.2211 15.8786C53.9629 16.814 52.6374 19.0598 52.7574 21.3722L51.5303 21.8805L48.0513 23.3215C46.3611 20.208 43.7916 17.6383 40.6781 15.9483L42.1191 12.4694L42.6269 11.2436C42.7253 11.2487 42.8239 11.2517 42.9229 11.2517C45.2068 11.2517 47.2471 9.88836 48.1213 7.77836C49.3081 4.91287 47.9425 1.61587 45.077 0.428874C44.3894 0.144375 43.6658 0 42.9259 0C40.642 0 38.6017 1.36337 37.7275 3.47337C36.7922 5.73161 37.4429 8.25698 39.1629 9.80723L38.6564 11.0301L37.2149 14.5102C35.5618 14.0165 33.8115 13.7498 32 13.7498C30.1885 13.7498 28.4383 14.0165 26.7852 14.5102L25.3437 11.0301L24.8372 9.80723C26.5572 8.25698 27.2079 5.73161 26.2725 3.47324C25.3984 1.36337 23.3578 0 21.0741 0C20.3342 0 19.6104 0.144375 18.9229 0.429249C16.0576 1.61625 14.6918 4.91312 15.8788 7.77874C16.7528 9.88861 18.7933 11.2521 21.0771 11.2521C21.1761 11.2521 21.2747 11.2491 21.3731 11.244L21.8808 12.4697L23.3218 15.9487C20.2083 17.6388 17.6387 20.2083 15.9487 23.3218L12.4697 21.8808L11.2426 21.3726C11.3626 19.0602 10.0371 16.8143 7.77883 15.8788C7.09133 15.5941 6.36758 15.4497 5.62771 15.4497C3.34384 15.4497 1.30347 16.8131 0.429344 18.9231C-0.757529 21.7886 0.608094 25.0856 3.47359 26.2726C4.16109 26.5573 4.88484 26.7017 5.62471 26.7017C7.25646 26.7017 8.7637 26.0053 9.81033 24.8383L11.0303 25.3437L14.5104 26.7852C14.0166 28.4383 13.7501 30.1886 13.7501 32.0001C13.7501 33.8116 14.0167 35.5618 14.5104 37.2149L11.0302 38.6562L9.8102 39.1615C8.76358 37.9946 7.25633 37.2982 5.62458 37.2982C4.88471 37.2982 4.16096 37.4426 3.47346 37.7274C0.608094 38.9144 -0.757654 42.2113 0.429344 45.0769C1.30334 47.1868 3.34384 48.5503 5.62758 48.5503C6.36746 48.5503 7.09121 48.4059 7.77871 48.121C10.037 47.1857 11.3624 44.9398 11.2424 42.6274L12.4696 42.1192L15.9486 40.6782C17.6387 43.7917 20.2082 46.3613 23.3217 48.0513L21.8807 51.5303L21.3729 52.756C21.2746 52.7509 21.1759 52.7479 21.0769 52.7479C18.7931 52.7479 16.7527 54.1113 15.8786 56.2213C14.6917 59.0868 16.0573 62.3838 18.9228 63.5708C19.6103 63.8555 20.3341 63.9999 21.0739 63.9999C23.3578 63.9999 25.3982 62.6365 26.2723 60.5265C27.2077 58.2683 26.5569 55.7429 24.8369 54.1926L25.3434 52.9698L26.7849 49.4897C28.438 49.9834 30.1883 50.25 31.9998 50.25C33.8113 50.25 35.5615 49.9834 37.2146 49.4897L38.6561 52.9698L39.1626 54.1926C37.4426 55.7429 36.7919 58.2683 37.7273 60.5266C38.6013 62.6365 40.6418 64 42.9255 64C43.6654 64 44.3891 63.8556 45.0766 63.5708C47.942 62.3838 49.3078 59.0869 48.1208 56.2213C47.2468 54.1114 45.2063 52.7479 42.9225 52.7479C42.8235 52.7479 42.7249 52.7509 42.6265 52.756L42.1188 51.5303L40.6778 48.0513C43.7913 46.3612 46.3609 43.7917 48.0509 40.6782L51.5299 42.1192L52.757 42.6274C52.637 44.9398 53.9625 47.1857 56.2207 48.1212C56.9082 48.4059 57.632 48.5503 58.3719 48.5503C60.6557 48.5503 62.6961 47.1869 63.5702 45.0769C64.7575 42.2113 63.392 38.9143 60.5264 37.7273ZM32 46.4998C24.0048 46.4998 17.5001 39.995 17.5001 31.9998C17.5001 24.0046 24.0048 17.4998 32 17.4998C39.9953 17.4998 46.5 24.0046 46.5 31.9998C46.5 39.995 39.9951 46.4998 32 46.4998Z" fill="url(#paint0_linear_45246_1155)"/>
            <path d="M32.0001 21.2498C26.0726 21.2498 21.2501 26.0722 21.2501 31.9997C21.2501 37.9272 26.0726 42.7497 32.0001 42.7497C37.9276 42.7497 42.7501 37.9272 42.7501 31.9997C42.7501 26.0722 37.9276 21.2498 32.0001 21.2498ZM33.8751 36.1247H30.1251V27.8747H33.8751V36.1247Z" fill="black"/>
            <path d="M32.0001 21.2498C26.0726 21.2498 21.2501 26.0722 21.2501 31.9997C21.2501 37.9272 26.0726 42.7497 32.0001 42.7497C37.9276 42.7497 42.7501 37.9272 42.7501 31.9997C42.7501 26.0722 37.9276 21.2498 32.0001 21.2498ZM33.8751 36.1247H30.1251V27.8747H33.8751V36.1247Z" fill="url(#paint1_linear_45246_1155)"/>
        </g>
        <defs>
            <linearGradient id="paint0_linear_45246_1155" x1="31.9999" y1="0" x2="31.9999" y2="64" gradientUnits="userSpaceOnUse">
                <stop stop-color="#EF8080"/>
                <stop offset="1" stop-color="#F0145A"/>
            </linearGradient>
            <linearGradient id="paint1_linear_45246_1155" x1="32.0001" y1="21.2498" x2="32.0001" y2="42.7497" gradientUnits="userSpaceOnUse">
                <stop stop-color="#EF8080"/>
                <stop offset="1" stop-color="#F0145A"/>
            </linearGradient>
            <clipPath id="clip0_45246_1155">
                <rect width="64" height="64" fill="white"/>
            </clipPath>
        </defs>
    </symbol>
    <symbol id="hand" viewBox="0 0 64 64">
        <path d="M42.0057 56H23.0057V62H42.0057V56Z" fill="black"/>
        <path d="M42.0057 56H23.0057V62H42.0057V56Z" fill="url(#paint0_linear_45246_1167)"/>
        <path d="M15.1727 2.45229L1.73761 15.8873L5.27315 19.4229L18.7082 5.98783L15.1727 2.45229Z" fill="black"/>
        <path d="M15.1727 2.45229L1.73761 15.8873L5.27315 19.4229L18.7082 5.98783L15.1727 2.45229Z" fill="url(#paint1_linear_45246_1167)"/>
        <path d="M49.1127 2.32178L45.5771 5.8573L59.0122 19.2924L62.5477 15.7568L49.1127 2.32178Z" fill="black"/>
        <path d="M49.1127 2.32178L45.5771 5.8573L59.0122 19.2924L62.5477 15.7568L49.1127 2.32178Z" fill="url(#paint2_linear_45246_1167)"/>
        <path d="M44.5563 9.7066L41.865 9.59253C41.089 9.48299 40.2981 9.55529 39.5548 9.80375C38.8115 10.0522 38.1361 10.47 37.5819 11.0242L32.0774 16.5286L26.3239 10.7751C25.8243 10.287 25.2011 9.94445 24.5213 9.78429C23.8415 9.62412 23.1309 9.65243 22.466 9.86615C21.8388 10.0569 21.1715 10.0736 20.5355 9.91457C19.8994 9.75549 19.3186 9.42658 18.855 8.963L18.0011 8.10912L7.39447 18.7157L9.12247 20.4437L9.00839 23.1349C8.89885 23.911 8.97115 24.7019 9.2196 25.4452C9.46805 26.1885 9.88584 26.8639 10.44 27.4181L20.0524 37.0305C20.1809 35.7687 20.7855 34.6033 21.7431 33.7716L18.7482 30.7767L19.4553 30.0696L22.5835 33.1978C23.0269 32.9454 23.5067 32.763 24.0059 32.6572V28.9633L22.2837 27.2411L22.9908 26.534L24.0059 27.5491V22.1992C23.9947 21.3149 24.3086 20.4573 24.8878 19.7891C25.4671 19.1209 26.2715 18.6886 27.1484 18.5742C27.4792 18.5421 27.8127 18.5572 28.1392 18.619L26.9097 17.3895L27.6169 16.6824L29.413 18.4786C29.7311 17.8622 30.2232 17.3528 30.8283 17.0136C31.4333 16.6744 32.1246 16.5202 32.8164 16.5703C33.6513 16.6678 34.4258 17.0543 35.0056 17.6629C35.5854 18.2715 35.9341 19.0637 35.9912 19.9023C36.5595 19.6322 37.1893 19.5176 37.8164 19.5703C38.7075 19.677 39.5272 20.1108 40.1165 20.7876C40.7059 21.4645 41.0228 22.3361 41.0058 23.2334V26.6572C41.9159 26.8473 42.755 27.2872 43.4291 27.9275C44.1031 28.5678 44.5855 29.3833 44.8219 30.2824L47.6105 27.4939L48.3176 28.201L45.0023 31.5163C45.0024 31.53 45.0059 31.5428 45.0059 31.5566V34.8767C45.9043 34.7827 46.7436 34.3845 47.3848 33.7482L54.2249 26.9081C54.713 26.4085 55.0556 25.7853 55.2157 25.1055C55.3759 24.4257 55.3475 23.7151 55.1338 23.0502C54.943 22.423 54.9263 21.7557 55.0854 21.1196C55.2445 20.4836 55.5734 19.9027 56.037 19.4391L56.8909 18.5853L46.2843 7.97864L44.5563 9.7066Z" fill="black"/>
        <path d="M44.5563 9.7066L41.865 9.59253C41.089 9.48299 40.2981 9.55529 39.5548 9.80375C38.8115 10.0522 38.1361 10.47 37.5819 11.0242L32.0774 16.5286L26.3239 10.7751C25.8243 10.287 25.2011 9.94445 24.5213 9.78429C23.8415 9.62412 23.1309 9.65243 22.466 9.86615C21.8388 10.0569 21.1715 10.0736 20.5355 9.91457C19.8994 9.75549 19.3186 9.42658 18.855 8.963L18.0011 8.10912L7.39447 18.7157L9.12247 20.4437L9.00839 23.1349C8.89885 23.911 8.97115 24.7019 9.2196 25.4452C9.46805 26.1885 9.88584 26.8639 10.44 27.4181L20.0524 37.0305C20.1809 35.7687 20.7855 34.6033 21.7431 33.7716L18.7482 30.7767L19.4553 30.0696L22.5835 33.1978C23.0269 32.9454 23.5067 32.763 24.0059 32.6572V28.9633L22.2837 27.2411L22.9908 26.534L24.0059 27.5491V22.1992C23.9947 21.3149 24.3086 20.4573 24.8878 19.7891C25.4671 19.1209 26.2715 18.6886 27.1484 18.5742C27.4792 18.5421 27.8127 18.5572 28.1392 18.619L26.9097 17.3895L27.6169 16.6824L29.413 18.4786C29.7311 17.8622 30.2232 17.3528 30.8283 17.0136C31.4333 16.6744 32.1246 16.5202 32.8164 16.5703C33.6513 16.6678 34.4258 17.0543 35.0056 17.6629C35.5854 18.2715 35.9341 19.0637 35.9912 19.9023C36.5595 19.6322 37.1893 19.5176 37.8164 19.5703C38.7075 19.677 39.5272 20.1108 40.1165 20.7876C40.7059 21.4645 41.0228 22.3361 41.0058 23.2334V26.6572C41.9159 26.8473 42.755 27.2872 43.4291 27.9275C44.1031 28.5678 44.5855 29.3833 44.8219 30.2824L47.6105 27.4939L48.3176 28.201L45.0023 31.5163C45.0024 31.53 45.0059 31.5428 45.0059 31.5566V34.8767C45.9043 34.7827 46.7436 34.3845 47.3848 33.7482L54.2249 26.9081C54.713 26.4085 55.0556 25.7853 55.2157 25.1055C55.3759 24.4257 55.3475 23.7151 55.1338 23.0502C54.943 22.423 54.9263 21.7557 55.0854 21.1196C55.2445 20.4836 55.5734 19.9027 56.037 19.4391L56.8909 18.5853L46.2843 7.97864L44.5563 9.7066Z" fill="url(#paint3_linear_45246_1167)"/>
        <path d="M29.8804 21.6895C29.8044 21.0399 29.476 20.4462 28.966 20.0367C28.4559 19.6272 27.8053 19.4347 27.1546 19.5009C26.5234 19.588 25.9463 19.904 25.5329 20.3888C25.1194 20.8736 24.8986 21.4935 24.9124 22.1305V33.4879C23.8515 33.4879 22.8341 33.9093 22.0839 34.6594C21.3338 35.4096 20.9124 36.427 20.9124 37.4879V47.1613C20.9205 47.8597 21.1189 48.5426 21.4864 49.1365C21.8538 49.7304 22.3763 50.2129 22.9976 50.5319C23.576 50.8406 24.0597 51.3006 24.3969 51.8628C24.7342 52.425 24.9123 53.0683 24.9124 53.7239V54.9315H39.9124V52.4879L41.896 50.6655C42.5222 50.1942 43.0303 49.5838 43.3803 48.8825C43.7302 48.1812 43.9123 47.4082 43.9124 46.6245V31.4879C43.9124 30.427 43.4909 29.4096 42.7408 28.6594C41.9906 27.9093 40.9732 27.4879 39.9124 27.4879V23.1653C39.9293 22.518 39.7062 21.8874 39.286 21.3949C38.8657 20.9024 38.2781 20.5828 37.6362 20.4977C37.0063 20.442 36.3787 20.6279 35.8807 21.0177C35.3826 21.4074 35.0513 21.9719 34.9539 22.5967H35.4124V38.0401H34.4124V22.5967H34.9124V20.1653C34.9293 19.518 34.7062 18.8874 34.286 18.3949C33.8657 17.9024 33.2781 17.5828 32.6362 17.4977C32.2904 17.4666 31.942 17.508 31.613 17.619C31.2841 17.73 30.9819 17.9084 30.7256 18.1426C30.4694 18.3769 30.2647 18.6619 30.1247 18.9796C29.9847 19.2973 29.9124 19.6407 29.9124 19.9879V21.6895H30.4124V37.1329H29.4124V21.6895H29.8804ZM25.3115 42.0401H24.3115V34.0401H25.3115V42.0401ZM39.4124 27.7983H40.4124V38.2417H39.4124V27.7983Z" fill="black"/>
        <path d="M29.8804 21.6895C29.8044 21.0399 29.476 20.4462 28.966 20.0367C28.4559 19.6272 27.8053 19.4347 27.1546 19.5009C26.5234 19.588 25.9463 19.904 25.5329 20.3888C25.1194 20.8736 24.8986 21.4935 24.9124 22.1305V33.4879C23.8515 33.4879 22.8341 33.9093 22.0839 34.6594C21.3338 35.4096 20.9124 36.427 20.9124 37.4879V47.1613C20.9205 47.8597 21.1189 48.5426 21.4864 49.1365C21.8538 49.7304 22.3763 50.2129 22.9976 50.5319C23.576 50.8406 24.0597 51.3006 24.3969 51.8628C24.7342 52.425 24.9123 53.0683 24.9124 53.7239V54.9315H39.9124V52.4879L41.896 50.6655C42.5222 50.1942 43.0303 49.5838 43.3803 48.8825C43.7302 48.1812 43.9123 47.4082 43.9124 46.6245V31.4879C43.9124 30.427 43.4909 29.4096 42.7408 28.6594C41.9906 27.9093 40.9732 27.4879 39.9124 27.4879V23.1653C39.9293 22.518 39.7062 21.8874 39.286 21.3949C38.8657 20.9024 38.2781 20.5828 37.6362 20.4977C37.0063 20.442 36.3787 20.6279 35.8807 21.0177C35.3826 21.4074 35.0513 21.9719 34.9539 22.5967H35.4124V38.0401H34.4124V22.5967H34.9124V20.1653C34.9293 19.518 34.7062 18.8874 34.286 18.3949C33.8657 17.9024 33.2781 17.5828 32.6362 17.4977C32.2904 17.4666 31.942 17.508 31.613 17.619C31.2841 17.73 30.9819 17.9084 30.7256 18.1426C30.4694 18.3769 30.2647 18.6619 30.1247 18.9796C29.9847 19.2973 29.9124 19.6407 29.9124 19.9879V21.6895H30.4124V37.1329H29.4124V21.6895H29.8804ZM25.3115 42.0401H24.3115V34.0401H25.3115V42.0401ZM39.4124 27.7983H40.4124V38.2417H39.4124V27.7983Z" fill="url(#paint4_linear_45246_1167)"/>
        <defs>
            <linearGradient id="paint0_linear_45246_1167" x1="32.5057" y1="56" x2="32.5057" y2="62" gradientUnits="userSpaceOnUse">
                <stop stop-color="#EF8080"/>
                <stop offset="1" stop-color="#F0145A"/>
            </linearGradient>
            <linearGradient id="paint1_linear_45246_1167" x1="8.45513" y1="9.16981" x2="11.9907" y2="12.7053" gradientUnits="userSpaceOnUse">
                <stop stop-color="#EF8080"/>
                <stop offset="1" stop-color="#F0145A"/>
            </linearGradient>
            <linearGradient id="paint2_linear_45246_1167" x1="47.3449" y1="4.08954" x2="60.78" y2="17.5246" gradientUnits="userSpaceOnUse">
                <stop stop-color="#EF8080"/>
                <stop offset="1" stop-color="#F0145A"/>
            </linearGradient>
            <linearGradient id="paint3_linear_45246_1167" x1="32.1427" y1="7.97864" x2="32.1427" y2="37.0305" gradientUnits="userSpaceOnUse">
                <stop stop-color="#EF8080"/>
                <stop offset="1" stop-color="#F0145A"/>
            </linearGradient>
            <linearGradient id="paint4_linear_45246_1167" x1="32.4124" y1="17.4877" x2="32.4124" y2="54.9315" gradientUnits="userSpaceOnUse">
                <stop stop-color="#EF8080"/>
                <stop offset="1" stop-color="#F0145A"/>
            </linearGradient>
        </defs>
    </symbol>
    <symbol id="shield" viewBox="0 0 64 64">
        <path d="M41.2317 37.6965C43.5839 37.6965 45.9096 38.2849 47.9577 39.3979C48.3296 39.5984 48.6709 39.8372 49.0194 40.0672C52.3807 33.4873 54.1545 26.5283 54.1545 19.7393C54.1545 19.3578 54.1545 18.9639 54.1423 18.5701C54.1177 18.0163 53.7238 17.5362 53.1699 17.4132C45.7361 15.7886 39.0038 11.7639 33.7115 5.78242L32.9238 4.8839C32.6899 4.61317 32.3577 4.46548 32.0007 4.46548C31.6192 4.41628 31.3238 4.60085 31.0899 4.85934L29.8838 6.18859C24.8623 11.7147 18.5361 15.5301 11.5946 17.2286L10.7946 17.4254C10.253 17.5486 9.8715 18.0286 9.85918 18.5824C9.41612 35.887 19.6315 48.3301 24.0377 52.8839C25.2306 54.1087 26.5606 55.3261 27.8253 56.3324C27.3509 54.9016 27.0779 53.3961 27.0779 51.8504C27.0779 44.0457 33.427 37.6965 41.2317 37.6965Z" fill="url(#paint0_linear_45246_1178)"/>
        <path d="M46.7822 41.5609C45.0837 40.6379 43.1637 40.1578 41.2314 40.1578C34.7822 40.1578 29.5391 45.4009 29.5391 51.8501C29.5391 54.0286 30.1299 56.1578 31.2622 57.9794C33.416 61.4625 37.133 63.5425 41.2314 63.5425C47.6683 63.5425 52.9237 58.2994 52.9237 51.8501C52.9237 47.5425 50.5729 43.604 46.7822 41.5609ZM47.2196 50.2934L38.0747 57.4099L34.9527 52.5265C34.5862 51.9538 34.7538 51.193 35.3265 50.827C35.8999 50.4604 36.6613 50.6293 37.0261 51.2008L38.6937 53.809L45.7076 48.351C46.243 47.9334 47.0171 48.0289 47.4347 48.5662C47.8524 49.1028 47.7556 49.8763 47.2196 50.2934Z" fill="url(#paint1_linear_45246_1178)"/>
        <defs>
            <linearGradient id="paint0_linear_45246_1178" x1="31.9999" y1="4.45752" x2="31.9999" y2="56.3324" gradientUnits="userSpaceOnUse">
                <stop stop-color="#EF8080"/>
                <stop offset="1" stop-color="#F0145A"/>
            </linearGradient>
            <linearGradient id="paint1_linear_45246_1178" x1="41.2314" y1="40.1578" x2="41.2314" y2="63.5425" gradientUnits="userSpaceOnUse">
                <stop stop-color="#EF8080"/>
                <stop offset="1" stop-color="#F0145A"/>
            </linearGradient>
        </defs>
    </symbol>
    <symbol id="law" viewBox="0 0 48 48">
        <g clip-path="url(#clip0_45246_1186)">
            <path d="M32.253 12.46C32.985 13.192 34.171 13.194 34.903 12.46L37.511 9.85205C38.242 9.12004 38.24 7.93404 37.511 7.20105L30.928 0.620045C30.198 -0.111955 29.012 -0.111955 28.28 0.620045L25.671 3.22804C24.941 3.96004 24.941 5.14604 25.671 5.87604L32.253 12.46Z" fill="url(#paint0_linear_45246_1186)"/>
            <path d="M16.667 28.338C17.398 29.067 18.584 29.067 19.315 28.338L21.924 25.728C22.656 24.998 22.656 23.811 21.924 23.079L15.341 16.496C14.61 15.766 13.424 15.764 12.692 16.496L10.084 19.104C9.35202 19.836 9.35402 21.022 10.084 21.754L16.667 28.338Z" fill="url(#paint1_linear_45246_1186)"/>
            <path d="M46.549 28.964L43.902 26.314C43.168 25.584 41.985 25.584 41.254 26.314L40.093 27.474L28.888 16.267L31.315 13.839L24.582 7.10803L22.154 9.53603L19.062 12.626L16.688 15L23.42 21.733L25.797 19.36L37 30.565L35.952 31.614C35.22 32.343 35.218 33.53 35.952 34.262L38.599 36.91C39.333 37.644 40.518 37.644 41.249 36.91L46.548 31.613C47.281 30.88 47.281 29.696 46.549 28.964Z" fill="url(#paint2_linear_45246_1186)"/>
            <path d="M26.978 37.0131C26.978 35.8141 26.006 34.8401 24.805 34.8401H7.837C6.637 34.8401 5.664 35.8141 5.664 37.0131V40.5401H0.901001V47.9291H31.459V40.5401H26.978V37.0131Z" fill="url(#paint3_linear_45246_1186)"/>
        </g>
        <defs>
            <linearGradient id="paint0_linear_45246_1186" x1="31.591" y1="0.0710449" x2="31.591" y2="13.0098" gradientUnits="userSpaceOnUse">
                <stop stop-color="#EF8080"/>
                <stop offset="1" stop-color="#F0145A"/>
            </linearGradient>
            <linearGradient id="paint1_linear_45246_1186" x1="16.0044" y1="15.9478" x2="16.0044" y2="28.8848" gradientUnits="userSpaceOnUse">
                <stop stop-color="#EF8080"/>
                <stop offset="1" stop-color="#F0145A"/>
            </linearGradient>
            <linearGradient id="paint2_linear_45246_1186" x1="31.8929" y1="7.10803" x2="31.8929" y2="37.4605" gradientUnits="userSpaceOnUse">
                <stop stop-color="#EF8080"/>
                <stop offset="1" stop-color="#F0145A"/>
            </linearGradient>
            <linearGradient id="paint3_linear_45246_1186" x1="16.18" y1="34.8401" x2="16.18" y2="47.9291" gradientUnits="userSpaceOnUse">
                <stop stop-color="#EF8080"/>
                <stop offset="1" stop-color="#F0145A"/>
            </linearGradient>
            <clipPath id="clip0_45246_1186">
                <rect width="48" height="48" fill="white"/>
            </clipPath>
        </defs>
    </symbol>
    <symbol id="link-arrow" fill="none" viewBox="0 0 12 12">
        <g opacity="0.5">
            <path d="M3.5 1.5L8 6L3.5 10.5" stroke="white" stroke-width="2"/>
        </g>
    </symbol>
    <symbol id="arrow-blue" viewBox="0 0 8 12" fill="none">
        <path d="M1.5 1.5L6 6L1.5 10.5" stroke="#24A3FF" stroke-width="2"/>
    </symbol>


</svg>